<svg width="74" height="74" viewBox="0 0 74 74" fill="none" xmlns="http://www.w3.org/2000/svg">
<path d="M73.8925 28.5657L70.3668 9.06486C69.8695 6.31343 67.6867 4.13057 64.9353 3.6331L45.4343 0.107554C43.2609 -0.285425 41.0323 0.41237 39.4713 1.97345L1.97357 39.4713C0.700975 40.7439 0 42.4359 0 44.2356C0 46.0353 0.700831 47.7275 1.97357 48.9999L25.0002 72.0265C26.2728 73.2992 27.9649 74 29.7646 74C31.5643 74 33.2564 73.2992 34.5289 72.0265L72.0266 34.5288C73.5877 32.9675 74.2852 30.7383 73.8925 28.5657ZM27.7576 55.8971C27.6666 56.2048 27.4826 56.497 27.2055 56.7741C26.928 57.0516 26.6359 57.2356 26.3283 57.3264C26.0208 57.4175 25.7677 57.3632 25.5681 57.1638L17.3163 48.9119C17.1171 48.7127 17.0497 48.4725 17.1148 48.191C17.1795 47.9094 17.3335 47.6474 17.5761 47.4046L22.0855 42.8952C22.2847 42.6961 22.5231 42.631 22.8001 42.7001C23.0776 42.7695 23.3328 42.9211 23.5668 43.1552C23.818 43.4066 23.9762 43.6729 24.0413 43.9543C24.106 44.2362 24.0432 44.4721 23.8527 44.6625L20.4868 48.0284L22.6831 50.2247L24.6454 48.2624C24.8358 48.072 25.0633 48.0003 25.3276 48.0479C25.5918 48.0956 25.8323 48.228 26.0487 48.4443C26.248 48.6437 26.3736 48.8733 26.4256 49.133C26.4774 49.3929 26.4039 49.6227 26.2048 49.8219L24.2425 51.7842L27.5952 55.1369C27.7948 55.3363 27.8487 55.5897 27.7576 55.8971ZM38.8035 44.6562C38.756 45.1544 38.5804 45.5552 38.2772 45.8584C37.9738 46.1618 37.6318 46.2525 37.2505 46.1313L32.0136 44.455L31.156 45.3127L34.2877 48.4443C34.4871 48.6438 34.541 48.8973 34.4501 49.2047C34.3589 49.5126 34.1749 49.8048 33.8979 50.0819C33.6205 50.3592 33.3283 50.5432 33.0208 50.634C32.7131 50.7253 32.4601 50.671 32.2606 50.4715L23.9958 42.2067C23.8311 42.0421 23.7469 41.8409 23.7424 41.6022C23.7382 41.3642 23.8271 41.1539 24.0091 40.9721L26.6991 38.2821C28.8302 36.151 30.823 36.0122 32.6769 37.8661C34.0282 39.2178 34.3833 40.6213 33.7423 42.0765L38.1995 43.3632C38.3037 43.3806 38.4032 43.4369 38.4984 43.5322C38.7495 43.7837 38.8512 44.1581 38.8035 44.6562ZM45.9834 37.9963L41.3573 42.6225C41.1146 42.8652 40.8527 43.0188 40.5709 43.0838C40.2893 43.1489 40.0492 43.0817 39.8498 42.8822L31.5979 34.6304C31.3988 34.4312 31.3314 34.191 31.3965 33.9094C31.4614 33.6278 31.6151 33.3659 31.8578 33.1231L36.4841 28.4969C36.6833 28.2977 36.9217 28.2327 37.1987 28.3018C37.4762 28.3712 37.7314 28.5228 37.9654 28.7569C38.2166 29.0083 38.3749 29.2746 38.4399 29.556C38.5046 29.8379 38.4418 30.0737 38.2513 30.2642L34.7685 33.747L36.9648 35.9433L38.9142 33.9939C39.1046 33.8035 39.3322 33.7318 39.5964 33.7794C39.8606 33.8271 40.1013 33.9593 40.3176 34.1757C40.5169 34.375 40.6425 34.6046 40.6944 34.8645C40.7462 35.1244 40.6728 35.3542 40.4736 35.5533L38.5242 37.5028L40.7332 39.7118L44.2159 36.229C44.4063 36.0387 44.6426 35.9758 44.9241 36.0406C45.2058 36.1057 45.4719 36.2637 45.7232 36.5151C45.9569 36.7488 46.1089 37.0044 46.1782 37.2816C46.2477 37.559 46.1826 37.797 45.9834 37.9963ZM52.9875 30.9921L48.3611 35.6185C48.1184 35.8612 47.8564 36.015 47.5747 36.0799C47.2931 36.1449 47.0531 36.0777 46.8536 35.8782L38.6018 27.6264C38.4026 27.4272 38.3353 27.187 38.4003 26.9055C38.4652 26.6238 38.619 26.3619 38.8616 26.1191L43.4878 21.4929C43.6869 21.2938 43.9254 21.2287 44.2023 21.2978C44.4797 21.3673 44.7351 21.5188 44.9691 21.7529C45.2203 22.0043 45.3785 22.2707 45.4436 22.5521C45.5083 22.8339 45.4455 23.0698 45.255 23.2603L41.7722 26.743L43.9685 28.9393L45.9179 26.9899C46.1083 26.7995 46.3358 26.7278 46.6001 26.7754C46.8643 26.8231 47.1048 26.9555 47.3212 27.1718C47.5205 27.3712 47.6461 27.6008 47.6981 27.8605C47.7499 28.1204 47.6764 28.3502 47.4773 28.5494L45.5278 30.4988L47.7368 32.7078L51.2196 29.2251C51.41 29.0347 51.6463 28.972 51.9278 29.0367C52.2096 29.1018 52.4757 29.2597 52.7271 29.5111C52.9608 29.7448 53.1125 30.0006 53.1821 30.2777C53.252 30.5547 53.1868 30.7929 52.9875 30.9921ZM60.4098 21.9312C59.2518 23.0891 57.7306 23.6681 56.2095 23.6681C54.6882 23.6681 53.1672 23.0891 52.0092 21.931C49.6929 19.6149 49.6929 15.8464 52.0092 13.5303C54.3251 11.2142 58.0938 11.214 60.4098 13.5303C61.5319 14.6523 62.1496 16.144 62.1496 17.7306C62.1496 19.3173 61.5318 20.809 60.4098 21.9312Z" fill="white"/>
</svg>
