<svg width="74" height="74" viewBox="0 0 74 74" fill="none" xmlns="http://www.w3.org/2000/svg">
<path d="M60.5875 8.10917L39.0041 3.29917C37.6825 3.02137 36.3175 3.02137 34.9958 3.29917L13.4125 8.10917C11.3568 8.56541 9.51828 9.70937 8.2008 11.352C6.88333 12.9946 6.16574 15.0376 6.16663 17.1433V29.6925C6.1278 38.444 8.73672 47.0026 13.6507 54.2443C18.5647 61.486 25.5541 67.0722 33.7008 70.2692C34.7475 70.6991 35.8684 70.9191 37 70.9167C38.1281 70.914 39.2462 70.705 40.2991 70.3C48.4434 67.0903 55.4289 61.4968 60.3417 54.2514C65.2545 47.006 67.8656 38.4463 67.8333 29.6925V17.1433C67.8342 15.0376 67.1166 12.9946 65.7991 11.352C64.4816 9.70937 62.6431 8.56541 60.5875 8.10917ZM51.6458 30.0933L36.815 44.6775C36.2373 45.2518 35.4558 45.5741 34.6412 45.5741C33.8266 45.5741 33.0452 45.2518 32.4675 44.6775L25.4375 37.7708C25.1485 37.4842 24.9191 37.1432 24.7625 36.7675C24.606 36.3917 24.5254 35.9887 24.5254 35.5817C24.5254 35.1746 24.606 34.7716 24.7625 34.3959C24.9191 34.0202 25.1485 33.6791 25.4375 33.3925C26.0152 32.8182 26.7966 32.4959 27.6112 32.4959C28.4258 32.4959 29.2073 32.8182 29.785 33.3925L34.6566 38.1717L47.3291 25.8383C47.6186 25.5529 47.9615 25.3272 48.3383 25.1743C48.715 25.0214 49.1181 24.9441 49.5247 24.947C49.9312 24.9498 50.3333 25.0328 50.7078 25.191C51.0823 25.3492 51.422 25.5797 51.7075 25.8692C51.9929 26.1587 52.2186 26.5016 52.3715 26.8783C52.5244 27.255 52.6017 27.6582 52.5988 28.0647C52.596 28.4713 52.513 28.8733 52.3548 29.2478C52.1966 29.6224 51.9661 29.962 51.6766 30.2475L51.6458 30.0933Z" fill="white"/>
</svg>
