<svg width="74" height="74" viewBox="0 0 74 74" fill="none" xmlns="http://www.w3.org/2000/svg">
<path fill-rule="evenodd" clip-rule="evenodd" d="M6.41557 31.8493L22.6274 26.8929C18.4081 23.5405 14.1885 20.1878 9.96902 16.8353L2.52147 19.1122L6.41557 31.8493ZM6.41557 31.8493H71.4785V69.1328C71.4785 71.8098 69.2881 74 66.6111 74H11.283C8.60595 74 6.41557 71.8096 6.41557 69.1328V31.8493ZM46.538 52.9246L38.947 48.542L31.356 44.1594V52.9246V61.69L38.947 57.3074L46.538 52.9246ZM28.3428 25.1454C24.1234 21.7929 19.9038 18.4403 15.6845 15.0878L27.7495 11.3992C31.9688 14.7517 36.1886 18.1041 40.4077 21.4568L28.3428 25.1454ZM46.1234 19.7094L58.1884 16.0209L57.8232 15.7306L45.5302 5.96307L33.4652 9.6518C37.6845 13.0043 41.9039 16.3569 46.1234 19.7094ZM63.9039 14.2733C59.6844 10.9208 55.465 7.56823 51.2457 4.21569L65.0347 0L68.9288 12.7371L63.9039 14.2733Z" fill="white"/>
</svg>
