<svg width="74" height="74" viewBox="0 0 74 74" fill="none" xmlns="http://www.w3.org/2000/svg">
<path d="M72.1496 48.7163V63.3621C72.1496 68.2153 68.2153 72.1496 63.3621 72.1496H48.7163C43.8631 72.1496 39.9288 68.2153 39.9288 63.3621V48.7163C39.9288 43.8631 43.8631 39.9288 48.7163 39.9288H63.3621C68.2153 39.9288 72.1496 43.8631 72.1496 48.7163ZM25.2829 1.84961H10.6371C5.78391 1.84961 1.84961 5.78391 1.84961 10.6371V25.2829C1.84961 30.1361 5.78391 34.0704 10.6371 34.0704H25.2829C30.1361 34.0704 34.0704 30.1361 34.0704 25.2829V10.6371C34.0704 5.78391 30.1361 1.84961 25.2829 1.84961ZM56.0392 34.0704C64.9367 34.0704 72.1496 26.8576 72.1496 17.96C72.1496 9.06249 64.9367 1.84961 56.0392 1.84961C47.1417 1.84961 39.9288 9.06249 39.9288 17.96C39.9449 26.8509 47.1483 34.0543 56.0392 34.0704ZM25.2829 39.9288H10.6371C5.78391 39.9288 1.84961 43.8631 1.84961 48.7163V63.3621C1.84961 68.2153 5.78391 72.1496 10.6371 72.1496H25.2829C30.1361 72.1496 34.0704 68.2153 34.0704 63.3621V48.7163C34.0704 43.8631 30.1361 39.9288 25.2829 39.9288Z" fill="white"/>
</svg>
